<?xml version="1.0" standalone="no"?>
<!DOCTYPE svg PUBLIC "-//W3C//DTD SVG 1.1//EN" "http://www.w3.org/Graphics/SVG/1.1/DTD/svg11.dtd" >
<svg xmlns="http://www.w3.org/2000/svg" xmlns:xlink="http://www.w3.org/1999/xlink" version="1.1">
<metadata></metadata>
<defs>
<font id="barrowmedium" horiz-adv-x="1282" >
<font-face units-per-em="2048" ascent="1536" descent="-512" />
<missing-glyph horiz-adv-x="471" />
<glyph horiz-adv-x="0" />
<glyph horiz-adv-x="682" />
<glyph unicode=" "  horiz-adv-x="471" />
<glyph unicode="&#x09;" horiz-adv-x="471" />
<glyph unicode="&#xa0;" horiz-adv-x="471" />
<glyph unicode="!" horiz-adv-x="618" d="M162 0v291h293v-291h-293zM166 1184v231h287v-231l-72 -772h-145q-70 752 -70 772z" />
<glyph unicode="&#x22;" horiz-adv-x="997" d="M123 821l45 598h276v-10l-196 -588h-125zM563 821l45 598h275v-10l-197 -588h-123z" />
<glyph unicode="#" horiz-adv-x="1433" d="M-18 383l57 188h276l86 283h-274l57 188h275l114 373h201l-115 -373h228l114 373h201l-115 -373h281l-57 -188h-281l-86 -283h279l-58 -188h-278l-117 -383h-201l117 383h-227l-117 -383h-201l117 383h-276zM516 571h227l86 283h-227z" />
<glyph unicode="$" horiz-adv-x="1320" d="M76 340l248 88q44 -90 107.5 -137.5t156.5 -61.5v375l-94 29q-180 55 -274.5 148t-94.5 235q0 173 126.5 278t328.5 119v137h174v-145q92 -14 167 -48.5t125.5 -84t81 -92t58.5 -95.5l-256 -94q-2 5 -12 26t-15.5 30.5t-17.5 28.5t-24 30.5t-29 26t-39 24.5t-48 17v-345 l93 -26q91 -28 151.5 -56.5t112 -72t76 -106t24.5 -146.5q0 -173 -122 -285.5t-326 -136.5v-166h-174v166q-193 14 -320 105t-184 235zM397 1036q0 -33 12 -57t39.5 -42t57.5 -30t82 -28v305q-91 -9 -141 -49t-50 -99zM745 231q83 14 134 57.5t51 108.5q0 55 -49 91t-136 67 v-324z" />
<glyph unicode="%" horiz-adv-x="1738" d="M98 1053v4q0 151 93 254.5t239 103.5t237 -102.5t91 -251.5v-4q0 -150 -92.5 -254.5t-239.5 -104.5q-145 0 -236.5 103.5t-91.5 251.5zM240 0l551 743l485 672h199l-566 -762l-471 -653h-198zM276 1057q0 -87 43.5 -145t110.5 -58q68 0 109 57t41 142v4q0 86 -43.5 145.5 t-110.5 59.5q-68 0 -109 -58t-41 -143v-4zM944 338v4q0 150 93 253t239 103q144 0 236 -103t92 -249v-4q0 -150 -93 -254t-239 -104q-145 0 -236.5 103t-91.5 251zM1122 342q0 -87 43.5 -146t110.5 -59q68 0 108.5 58t40.5 143v4q0 85 -43.5 144t-109.5 59q-68 0 -109 -58 t-41 -141v-4z" />
<glyph unicode="&#x26;" horiz-adv-x="1425" d="M80 383q0 132 78.5 232t224.5 163q-121 145 -121 295q0 149 106.5 249.5t278.5 100.5q168 0 278.5 -95.5t110.5 -246.5q0 -53 -18 -101.5t-46.5 -85.5t-71.5 -72t-84 -60t-93 -51l242 -248q33 48 65.5 150.5t42.5 199.5l193 -133q-19 -102 -61.5 -200t-90.5 -167 l303 -313h-293l-149 152q-181 -172 -436 -172q-200 0 -329.5 110.5t-129.5 292.5zM328 389q0 -95 66 -151t169 -56q71 0 144.5 31.5t126.5 83.5l-320 326q-94 -40 -140 -101.5t-46 -132.5zM489 1057q0 -53 23.5 -100t81.5 -111q104 44 163.5 97.5t59.5 123.5q0 73 -45 117.5 t-117 44.5t-119 -48t-47 -124z" />
<glyph unicode="'" horiz-adv-x="550" d="M123 821l45 598h278v-10l-196 -588h-127z" />
<glyph unicode="(" horiz-adv-x="903" d="M178 575q0 500 400 873l176 -80q-318 -342 -318 -786q0 -443 318 -801l-176 -80q-400 375 -400 874z" />
<glyph unicode=")" horiz-adv-x="903" d="M150 -219q161 181 239 378t78 423q0 445 -317 786l176 80q399 -372 399 -873q0 -500 -399 -874z" />
<glyph unicode="*" horiz-adv-x="880" d="M113 995l219 99l-219 98l75 127l199 -141l-29 237h146l-29 -237l199 141l76 -127l-220 -98l220 -99l-76 -127l-199 142l29 -238h-146l29 238l-199 -142z" />
<glyph unicode="+" horiz-adv-x="1298" d="M139 598v223h383v379h230v-379h383v-223h-383v-381h-230v381h-383z" />
<glyph unicode="," horiz-adv-x="550" d="M94 -193l10 3q67 15 108.5 62.5t41.5 107.5v20h-125v285h287v-254q0 -58 -17 -121q-24 -91 -101 -149.5t-189 -77.5z" />
<glyph unicode="-" horiz-adv-x="835" d="M115 506v239h592v-239h-592z" />
<glyph unicode="." horiz-adv-x="550" d="M131 0v287h287v-287h-287z" />
<glyph unicode="/" horiz-adv-x="817" d="M-16 0l616 1415h234l-617 -1415h-233z" />
<glyph unicode="0" horiz-adv-x="1310" d="M94 709q0 125 18.5 231.5t60.5 200t106 159.5t159.5 104t216.5 38t216.5 -38t159.5 -104t106.5 -159.5t61 -200.5t18.5 -231t-19 -231.5t-61.5 -201t-107 -159.5t-160 -104t-214.5 -38t-214.5 38t-159.5 104t-106.5 159.5t-61.5 201t-19 231.5zM360 709 q0 -103 14.5 -189.5t46.5 -161t92 -117t142 -42.5t142 42.5t92 117t46.5 161t14.5 189.5q0 82 -8 152.5t-29 138.5t-53.5 115.5t-84.5 76.5t-120 29t-120 -29t-84.5 -76.5t-53.5 -115.5t-29 -138.5t-8 -152.5z" />
<glyph unicode="1" horiz-adv-x="757" d="M51 934v172q185 8 275.5 76.5t105.5 232.5h203v-1415h-258v934h-326z" />
<glyph unicode="2" horiz-adv-x="1175" d="M123 0v170q47 24 124 74t179 133.5t188 174.5t146.5 202t60.5 209q0 116 -58.5 186t-162.5 70q-114 0 -169.5 -73.5t-55.5 -187.5q0 -19 2 -43t4 -39l2 -14l-256 35q-4 36 -4 104q0 128 64.5 229.5t172 156.5t236.5 55q226 0 355.5 -127t129.5 -352q0 -65 -18 -131 t-44.5 -120t-70 -111.5t-80 -98.5t-89.5 -87.5t-84.5 -71.5t-79 -57.5t-58.5 -39.5t-37 -23v-2h555v-221h-952z" />
<glyph unicode="3" horiz-adv-x="1193" d="M82 395l233 39q9 -248 279 -248q118 0 186 59t68 165q0 103 -71 160t-183 57q-25 0 -58 -2.5t-53 -4.5l-20 -2v211q78 -8 135 -8q95 0 156 51t61 150q0 90 -58 147.5t-163 57.5q-111 0 -179.5 -64t-72.5 -200l-248 55q8 106 53.5 189t116 133.5t155.5 76t179 25.5 q125 0 230 -48.5t170 -141.5t65 -212q0 -112 -56 -190t-130 -111v-2q41 -14 78 -39.5t71 -65t54 -99t20 -130.5q0 -199 -140.5 -313.5t-373.5 -114.5q-225 0 -359.5 112t-144.5 308z" />
<glyph unicode="4" horiz-adv-x="1251" d="M51 301v191l649 915h281v-899h219v-207h-219v-301h-246v301h-684zM311 508h426v604h-4l-422 -602v-2z" />
<glyph unicode="5" horiz-adv-x="1243" d="M113 379l239 59q19 -111 92 -176t187 -65q124 0 193 79.5t69 206.5q0 117 -72.5 200t-195.5 83q-97 0 -160 -49t-92 -119l-215 51l88 766h780v-217h-590l-39 -301l2 -2q36 33 105 59.5t155 26.5q226 0 354 -135t128 -361q0 -144 -59.5 -258.5t-177.5 -183t-277 -68.5 q-204 0 -338 112t-176 292z" />
<glyph unicode="6" horiz-adv-x="1224" d="M94 682q0 362 148.5 561t402.5 199q373 0 461 -361l-244 -53q-30 199 -225 199q-127 0 -206.5 -121t-82.5 -324l2 -2q39 57 118 102.5t191 45.5q208 0 335.5 -129.5t127.5 -331.5q0 -220 -138 -356t-353 -136q-251 0 -394 172.5t-143 534.5zM377 461q0 -125 68 -199 t186 -74q112 0 179 77.5t67 191.5q0 119 -67.5 193.5t-182.5 74.5q-114 0 -182 -72t-68 -192z" />
<glyph unicode="7" horiz-adv-x="1120" d="M61 1194v221h994v-201q-199 -246 -320 -563t-151 -651h-275q29 308 160.5 615t327.5 579h-736z" />
<glyph unicode="8" horiz-adv-x="1216" d="M82 401q0 75 27.5 140.5t69.5 108t83.5 69t79.5 37.5v2q-26 11 -51 26t-54.5 41t-51 56t-36 74t-14.5 94q0 95 40.5 171.5t108 124t151 72.5t173.5 25t173.5 -25t151 -72.5t108 -124t40.5 -171.5q0 -61 -21 -113.5t-56 -87t-66.5 -56t-65.5 -36.5v-2q38 -11 80 -37.5 t85 -68.5t70.5 -107t27.5 -140q0 -86 -28 -156.5t-77 -120t-116 -83.5t-144 -50t-162 -16t-162 16t-143.5 50t-115.5 83.5t-77 120t-28 156.5zM334 420q0 -107 72 -170.5t202 -63.5t202.5 63.5t72.5 170.5q0 102 -77 164.5t-198 62.5t-197.5 -62.5t-76.5 -164.5zM375 1040 q0 -87 63.5 -144.5t169.5 -57.5t170 57.5t64 144.5q0 84 -63.5 138.5t-170.5 54.5q-106 0 -169.5 -54.5t-63.5 -138.5z" />
<glyph unicode="9" horiz-adv-x="1224" d="M102 950q0 219 138 355.5t354 136.5q251 0 393.5 -172.5t142.5 -534.5t-148 -561t-402 -199q-373 0 -461 361l243 53q14 -94 70 -146.5t156 -52.5q127 0 206.5 121t82.5 324l-3 2q-39 -57 -118 -102.5t-191 -45.5q-208 0 -335.5 129.5t-127.5 331.5zM348 961 q0 -119 67.5 -194t182.5 -75q114 0 182 72t68 192q0 125 -68 199t-186 74q-112 0 -179 -77t-67 -191z" />
<glyph unicode=":" horiz-adv-x="571" d="M139 0v287h287v-287h-287zM139 768v287h287v-287h-287z" />
<glyph unicode=";" horiz-adv-x="561" d="M94 -193l10 3q67 15 108.5 62.5t41.5 107.5v20h-125v285h287v-254q0 -58 -17 -121q-24 -91 -101 -149.5t-189 -77.5zM129 768v287h287v-287h-287z" />
<glyph unicode="&#x3c;" horiz-adv-x="1298" d="M158 600v215l956 442v-229l-717 -319l717 -320v-231z" />
<glyph unicode="=" horiz-adv-x="1298" d="M156 350v223h962v-223h-962zM156 850v223h962v-223h-962z" />
<glyph unicode="&#x3e;" horiz-adv-x="1298" d="M184 158v229l713 318l-713 321v231l957 -442v-215z" />
<glyph unicode="?" horiz-adv-x="1083" d="M51 956q0 218 138.5 351t345.5 133q124 0 227.5 -48.5t166 -137.5t62.5 -201q0 -84 -29 -152t-73.5 -117t-124.5 -114q-72 -59 -100 -90t-39 -65.5t-11 -96.5v-6h-229v55q0 62 11.5 106.5t45.5 88t68 74t108 89.5q64 52 92.5 100.5t28.5 116.5q0 84 -57 135.5t-152 51.5 q-111 0 -178 -70.5t-67 -206.5v-41zM354 0v291h293v-291h-293z" />
<glyph unicode="@" horiz-adv-x="2007" d="M104 541q0 183 69 346t186.5 278.5t280 182.5t343.5 67q194 0 361 -64.5t279 -173t175.5 -252t63.5 -300.5q0 -249 -117.5 -397t-310.5 -148q-100 0 -163 41.5t-89 111.5q-123 -153 -326 -153q-162 0 -275.5 112t-113.5 291q0 111 39.5 212t105 171.5t152 112t178.5 41.5 q117 0 193.5 -46t115.5 -114l21 107h215l-96 -549q-13 -63 -13 -92q0 -61 34.5 -90t88.5 -29q103 0 172.5 110.5t69.5 307.5q0 138 -57 263.5t-156 218t-241.5 147.5t-305.5 55q-211 0 -385.5 -105.5t-272.5 -281.5t-98 -381q0 -158 58.5 -297t159.5 -238.5t244.5 -157 t307.5 -57.5q256 0 478 129l51 -88q-247 -151 -531 -151q-157 0 -296.5 43t-247.5 122t-186.5 185t-119.5 237t-41 273zM709 498q0 -104 56 -164t142 -60q75 0 139 48.5t99 124t35 157.5q0 101 -55.5 160t-145.5 59q-76 0 -139 -49t-97 -123t-34 -153z" />
<glyph unicode="A" horiz-adv-x="1486" d="M51 0l565 1415h254l566 -1415h-271l-127 332h-594l-127 -332h-266zM528 553h426l-206 575h-5z" />
<glyph unicode="B" horiz-adv-x="1372" d="M133 0v1415h610q180 0 297 -61q86 -45 132.5 -125.5t46.5 -188.5q0 -104 -51.5 -177.5t-147.5 -112.5q128 -38 199 -124t71 -218q0 -107 -41.5 -187.5t-115 -127.5t-163.5 -70t-196 -23h-641zM399 219h357q272 0 272 211q0 59 -23.5 100t-66 61t-88 28t-102.5 8h-349 v-408zM399 834h314q243 0 243 188q0 176 -247 176h-310v-364z" />
<glyph unicode="C" horiz-adv-x="1556" d="M102 709q0 154 50 288.5t139 233t220.5 155t287.5 56.5q232 0 401.5 -120.5t235.5 -332.5l-265 -80q-27 132 -122 220t-250 88q-100 0 -181.5 -42t-134 -112.5t-80.5 -161.5t-28 -192q0 -100 29 -191.5t81.5 -162t134 -112.5t179.5 -42q163 0 255.5 80t127.5 215l260 -84 q-61 -203 -236 -320t-407 -117q-156 0 -287.5 57t-220.5 155.5t-139 233t-50 288.5z" />
<glyph unicode="D" horiz-adv-x="1490" d="M129 0v1415h516q221 0 363 -65q172 -77 273 -239t101 -400q0 -211 -90.5 -376.5t-255.5 -252.5q-152 -82 -362 -82h-545zM395 225h267q112 0 202 37q113 46 178.5 165t65.5 284q0 412 -348 469q-73 12 -193 12h-172v-967z" />
<glyph unicode="E" d="M127 0v1415h1053v-221h-787v-348h715v-223h-715v-400h797v-223h-1063z" />
<glyph unicode="F" horiz-adv-x="1251" d="M131 0v1415h1034v-223h-770v-363h680v-225h-680v-604h-264z" />
<glyph unicode="G" horiz-adv-x="1593" d="M102 709q0 147 48.5 279.5t136 233.5t220 160.5t290.5 59.5q120 0 228.5 -35.5t188 -95t134 -136t75.5 -159.5l-260 -74q-31 122 -124.5 198.5t-239.5 76.5q-187 0 -305.5 -143t-118.5 -365q0 -101 29.5 -192t84.5 -162t142 -112.5t194 -41.5q95 0 171 34.5t120 90 t67 118t23 125.5v17h-381v217h637v-803h-202v205h-3q-20 -39 -58.5 -77.5t-95 -73.5t-137 -57t-171.5 -22q-204 0 -362.5 94t-244.5 261t-86 379z" />
<glyph unicode="H" horiz-adv-x="1435" d="M133 0v1415h266v-571h637v571h267v-1415h-267v614h-637v-614h-266z" />
<glyph unicode="I" horiz-adv-x="532" d="M133 0v1415h266v-1415h-266z" />
<glyph unicode="J" horiz-adv-x="1130" d="M57 420l2 55l269 43q-2 -28 -2 -55q0 -254 206 -254q114 0 156.5 54.5t42.5 160.5v991h268v-985q0 -219 -118.5 -338t-352.5 -119q-213 0 -342 121t-129 326z" />
<glyph unicode="K" horiz-adv-x="1400" d="M133 0v1415h266v-651l637 651h342l-590 -598l633 -817h-331l-486 639l-205 -203v-436h-266z" />
<glyph unicode="L" horiz-adv-x="1189" d="M133 0v1415h264v-1190h721v-225h-985z" />
<glyph unicode="M" horiz-adv-x="1755" d="M133 0v1415h436l308 -1126h2l307 1126h436v-1415h-266v1161h-2l-328 -1161h-297l-328 1157h-2v-1157h-266z" />
<glyph unicode="N" horiz-adv-x="1497" d="M133 0v1415h348l619 -1093l2 2v1091h262v-1415h-348l-619 1094l-2 -2v-1092h-262z" />
<glyph unicode="O" horiz-adv-x="1613" d="M109 705q0 206 85 373t245.5 265.5t367.5 98.5q204 0 364.5 -97t247 -263t86.5 -369q0 -156 -49.5 -291.5t-139 -234.5t-221.5 -155.5t-290 -56.5q-156 0 -287 56t-220.5 153.5t-139 232t-49.5 288.5zM381 713q0 -99 27 -189t78 -163t134 -116.5t187 -43.5 q103 0 185.5 42t134 113.5t79 160.5t27.5 188t-27.5 189.5t-79 163t-135 116t-186.5 43.5q-101 0 -183.5 -43t-134 -114.5t-79 -160.5t-27.5 -186z" />
<glyph unicode="P" horiz-adv-x="1288" d="M129 0v1415h573q146 0 263 -51.5t188.5 -156t71.5 -246.5q0 -219 -147 -346.5t-371 -127.5h-314v-487h-264zM393 713h271q133 0 216 57t83 178q0 71 -23.5 120t-67.5 74.5t-95.5 36.5t-119.5 11h-264v-477z" />
<glyph unicode="Q" horiz-adv-x="1640" d="M109 705q0 206 85 373t245.5 265.5t367.5 98.5q204 0 364.5 -97t247 -263t86.5 -369q0 -286 -155 -486l223 -170l-176 -190l-209 213q-164 -105 -383 -105q-156 0 -287 56t-220.5 153.5t-139 232t-49.5 288.5zM381 713q0 -99 27 -189t78 -163t134 -116.5t187 -43.5 q103 0 185.5 42t134 113.5t79 160.5t27.5 188t-27.5 189.5t-79 163t-135 116t-186.5 43.5q-101 0 -183.5 -43t-134 -114.5t-79 -160.5t-27.5 -186z" />
<glyph unicode="R" horiz-adv-x="1368" d="M129 0v1415h596q244 0 372 -106t128 -316q0 -76 -25 -137.5t-67.5 -100.5t-91 -63t-101.5 -33v-2q63 -6 105 -24t69 -54t41.5 -74t30.5 -102q83 -346 104 -401v-2h-276l-80 322q-33 137 -78.5 182t-144.5 45h-318v-549h-264zM393 766h318q135 0 196.5 57.5t61.5 155.5 t-61.5 155.5t-196.5 57.5h-318v-426z" />
<glyph unicode="S" horiz-adv-x="1400" d="M115 426l278 51q20 -134 106.5 -207t223.5 -73q135 0 206.5 53t71.5 145q0 84 -62.5 125.5t-229.5 69.5l-152 24q-91 14 -164 43.5t-131.5 76.5t-90.5 118t-32 160q0 190 152 310t377 120q102 0 193 -24t168.5 -72t131.5 -128.5t74 -185.5l-281 -51q-38 237 -284 240 q-121 0 -188.5 -51t-67.5 -123q0 -77 62 -120.5t206 -66.5l152 -24q74 -12 134 -29.5t119 -50t99 -75.5t65 -108t25 -147q0 -142 -76.5 -246t-201 -154.5t-279.5 -50.5q-248 0 -406.5 114.5t-197.5 336.5z" />
<glyph unicode="T" horiz-adv-x="1255" d="M55 1188v227h1145v-227h-438v-1188h-266v1188h-441z" />
<glyph unicode="U" horiz-adv-x="1454" d="M123 569v846h266v-846q0 -88 14.5 -151t51 -114t104.5 -77t168 -26t168 26t104.5 77t51 114t14.5 151v846h266v-846q0 -275 -155.5 -434.5t-450.5 -159.5q-293 0 -447.5 159.5t-154.5 434.5z" />
<glyph unicode="V" horiz-adv-x="1370" d="M31 1415h282l369 -1141h4l373 1141h280l-487 -1415h-334z" />
<glyph unicode="W" horiz-adv-x="1978" d="M41 1415h287l227 -1141h6l256 1141h352l254 -1141h7l229 1141h278l-323 -1415h-346l-279 1167h-6l-250 -1167h-371z" />
<glyph unicode="X" horiz-adv-x="1390" d="M51 0l494 731l-453 684h301l307 -483l308 483h301l-459 -680l489 -735h-307l-336 530l-344 -530h-301z" />
<glyph unicode="Y" horiz-adv-x="1378" d="M41 1415h305l340 -633l356 633h295l-520 -876v-539h-268v537z" />
<glyph unicode="Z" horiz-adv-x="1355" d="M86 0v201l819 991h-782v223h1116v-207l-815 -985h823v-223h-1161z" />
<glyph unicode="[" horiz-adv-x="870" d="M180 -283v1723h549v-195h-307v-1331h307v-197h-549z" />
<glyph unicode="\" horiz-adv-x="817" d="M-16 1415h233l617 -1415h-234z" />
<glyph unicode="]" horiz-adv-x="870" d="M141 -86h308v1331h-308v195h549v-1723h-549v197z" />
<glyph unicode="^" horiz-adv-x="1024" d="M115 1010l301 415h172l303 -415h-186l-205 264l-203 -264h-182z" />
<glyph unicode="_" horiz-adv-x="1228" d="M-4 -139h1208v-189h-1208v189z" />
<glyph unicode="`" horiz-adv-x="489" d="M10 1452l283 49l156 -297h-205z" />
<glyph unicode="a" horiz-adv-x="1267" d="M82 532q0 127 39.5 232.5t106 174t153 106.5t182.5 38q213 0 336 -163h2v135h252v-1055h-254v141h-10q-50 -76 -133 -121t-191 -45q-99 0 -186.5 38t-153.5 108t-104.5 176t-38.5 235zM346 526q0 -158 79 -249t202 -91q118 0 197 93.5t79 248.5q0 157 -78.5 250.5 t-197.5 93.5q-124 0 -202.5 -92.5t-78.5 -253.5z" />
<glyph unicode="b" horiz-adv-x="1265" d="M115 0v1446h258v-500l10 -2q118 139 319 139q99 0 186.5 -38t154 -108t105 -176t38.5 -235q0 -127 -39.5 -232.5t-106 -174t-153 -106.5t-182.5 -38q-108 0 -192 45t-134 121h-10v-141h-254zM365 528q0 -155 79 -248.5t197 -93.5q124 0 202.5 92.5t78.5 253.5 q0 158 -79 249t-202 91q-119 0 -197.5 -93.5t-78.5 -250.5z" />
<glyph unicode="c" horiz-adv-x="1171" d="M76 526q0 152 64.5 278t183.5 200.5t268 74.5q378 0 487 -334l-243 -63q-59 176 -236 176q-115 0 -188.5 -92t-73.5 -240q0 -158 76 -251t190 -93q107 0 164 50t84 143l244 -45q-12 -54 -35 -103.5t-64.5 -97t-96 -82t-133 -55.5t-171.5 -21q-152 0 -271.5 74.5t-184 201 t-64.5 279.5z" />
<glyph unicode="d" horiz-adv-x="1265" d="M80 532q0 127 39.5 232.5t106 174t153 106.5t182.5 38q204 0 322 -139l10 2v500h258v-1446h-254v141h-10q-50 -76 -133 -121t-191 -45q-99 0 -186.5 38t-153.5 108t-104.5 176t-38.5 235zM344 526q0 -158 79 -249t202 -91q118 0 197 93.5t79 248.5q0 157 -78.5 250.5 t-197.5 93.5q-124 0 -202.5 -92.5t-78.5 -253.5z" />
<glyph unicode="e" horiz-adv-x="1171" d="M76 528q0 111 34 210.5t97.5 175.5t161 120.5t217.5 44.5q157 0 274.5 -75t176.5 -199.5t59 -278.5v-55h-772q5 -129 78.5 -211t187.5 -82q203 0 262 193l233 -58q-58 -159 -183 -250.5t-310 -91.5q-234 0 -375 153t-141 404zM328 641h516q-9 108 -79.5 176t-178.5 68 t-178.5 -69.5t-79.5 -174.5z" />
<glyph unicode="f" horiz-adv-x="739" d="M51 860v195h129v90q0 173 81 249t249 76q88 0 162 -14v-201q-59 13 -105 13q-73 0 -102 -34.5t-29 -119.5v-59h242v-195h-242v-860h-256v860h-129z" />
<glyph unicode="g" d="M86 563q0 222 138.5 370t348.5 148q190 0 318 -137h8v111h254v-1010q0 -222 -136.5 -337.5t-359.5 -115.5q-442 0 -518 345l246 49q22 -100 89 -147.5t185 -47.5q121 0 180.5 62.5t59.5 179.5v157h-2q-63 -75 -140.5 -111t-185.5 -36q-210 0 -347.5 149t-137.5 371z M350 565q0 -135 76 -223t201 -88q122 0 201 87.5t79 219.5q0 134 -77 221.5t-203 87.5q-124 0 -200.5 -87t-76.5 -218z" />
<glyph unicode="h" horiz-adv-x="1175" d="M102 0v1446h256v-518h4q109 155 312 155q127 0 218.5 -59.5t131.5 -175.5q31 -82 31 -217v-631h-256v592q0 107 -33 166q-54 104 -182 104q-63 0 -113 -30t-78 -82q-35 -59 -35 -164v-586h-256z" />
<glyph unicode="i" horiz-adv-x="493" d="M115 1206v234h264v-234h-264zM119 0v1055h256v-1055h-256z" />
<glyph unicode="j" horiz-adv-x="530" d="M-27 -170q46 -4 52 -4q70 0 98.5 31.5t28.5 109.5v1088h258v-1018q0 -46 -1 -73.5t-4.5 -70t-12 -71t-22 -60.5t-37 -56.5t-54.5 -41.5q-67 -39 -181 -39q-76 0 -125 8v197zM150 1206v234h266v-234h-266z" />
<glyph unicode="k" horiz-adv-x="1134" d="M115 0v1446h256v-801l387 410h329l-409 -412l436 -643h-309l-303 465l-131 -135v-330h-256z" />
<glyph unicode="l" horiz-adv-x="485" d="M115 0v1446h256v-1446h-256z" />
<glyph unicode="m" horiz-adv-x="1822" d="M115 0v1055h252v-137l4 2q109 161 307 161q172 0 264 -112q23 -29 47 -72q65 97 152.5 140.5t206.5 43.5q180 0 272 -112q56 -66 78 -143.5t22 -194.5v-631h-256v598q0 71 -14 117q-45 143 -193 143q-93 0 -151.5 -68.5t-58.5 -193.5v-596h-259v598q0 71 -14 117 q-45 143 -192 143q-93 0 -152 -68.5t-59 -193.5v-596h-256z" />
<glyph unicode="n" horiz-adv-x="1169" d="M115 0v1055h252v-135h2q112 163 317 163q127 0 218.5 -59.5t131.5 -175.5q31 -82 31 -217v-631h-256v592q0 107 -33 166q-54 104 -182 104q-63 0 -112.5 -30t-77.5 -82q-35 -59 -35 -164v-586h-256z" />
<glyph unicode="o" horiz-adv-x="1234" d="M76 522q0 158 67.5 285t192 200.5t282.5 73.5q235 0 388 -156.5t153 -392.5q0 -244 -150.5 -401.5t-392.5 -157.5q-237 0 -388.5 155t-151.5 394zM336 530q0 -154 70 -249t212 -95q139 0 210 92t71 242q0 153 -71.5 251.5t-211.5 98.5q-138 0 -209 -95t-71 -245z" />
<glyph unicode="p" horiz-adv-x="1265" d="M115 -381v1436h254v-140h10q50 76 132.5 121t190.5 45q99 0 186.5 -38t154 -108t105 -176t38.5 -235q0 -127 -39.5 -232.5t-106 -174t-153 -106.5t-182.5 -38q-203 0 -322 140l-10 -2v-492h-258zM365 528q0 -157 78.5 -250.5t197.5 -93.5q124 0 202.5 92.5t78.5 253.5 q0 158 -79 249t-202 91q-118 0 -197 -93.5t-79 -248.5z" />
<glyph unicode="q" horiz-adv-x="1265" d="M80 530q0 127 39.5 232.5t106 174t153 106.5t182.5 38q108 0 192 -45t134 -121h10v140h254v-1436h-258v492l-10 2q-119 -140 -320 -140q-99 0 -186.5 38t-153.5 108t-104.5 176t-38.5 235zM344 524q0 -158 79 -249t202 -91q119 0 197.5 93.5t78.5 250.5q0 155 -79 248.5 t-197 93.5q-124 0 -202.5 -92.5t-78.5 -253.5z" />
<glyph unicode="r" horiz-adv-x="772" d="M115 0v1055h241v-213h2q35 112 125.5 174.5t233.5 62.5h24v-250h-14q-86 0 -150.5 -17t-116 -57t-78 -111.5t-26.5 -174.5v-469h-241z" />
<glyph unicode="s" horiz-adv-x="1064" d="M80 309l235 53q37 -188 236 -188q96 0 147.5 33.5t51.5 89.5q0 53 -35 82t-111 41l-192 33q-318 54 -318 301q0 145 120 236t292 91q80 0 152 -18t134.5 -55t107 -100t63.5 -146l-252 -43q-13 83 -66 123.5t-131 40.5t-125 -32.5t-47 -82.5q0 -49 35.5 -73.5t114.5 -37.5 l192 -32q152 -27 234.5 -99t82.5 -211q0 -158 -128 -249t-326 -91q-191 0 -311.5 85.5t-155.5 248.5z" />
<glyph unicode="t" horiz-adv-x="772" d="M27 860v195h159v317l256 47v-364h236v-195h-236v-549q0 -66 31 -95.5t94 -29.5q33 0 121 15v-199q-111 -18 -217 -18q-285 0 -285 305v571h-159z" />
<glyph unicode="u" horiz-adv-x="1169" d="M102 424v631h256v-592q0 -107 33 -166q54 -104 182 -104q63 0 113 30t78 82q35 59 35 164v586h256v-1055h-252v135h-2q-113 -164 -318 -164q-127 0 -218 60t-132 176q-31 82 -31 217z" />
<glyph unicode="v" horiz-adv-x="1122" d="M41 1055h270l250 -813h2l254 813h264l-370 -1055h-301z" />
<glyph unicode="w" horiz-adv-x="1683" d="M45 1055h266l197 -807h6l176 807h309l172 -805h9l198 805h260l-323 -1055h-299l-172 807h-6l-176 -807h-302z" />
<glyph unicode="x" horiz-adv-x="1146" d="M45 0l387 545l-364 510h286l221 -326l220 326h280l-362 -504l389 -551h-287l-244 362l-245 -362h-281z" />
<glyph unicode="y" horiz-adv-x="1155" d="M57 1055h271l250 -813h2l254 813h264l-398 -1131q-18 -49 -29 -75.5t-30 -65.5t-36 -60t-43.5 -47t-56 -38.5t-69.5 -21.5t-88 -9q-83 0 -174 14v209q74 -16 150 -16q48 0 80.5 21.5t44.5 62.5l6 20z" />
<glyph unicode="z" horiz-adv-x="1103" d="M92 0v188l584 662h-557v205h880v-189l-583 -659h596v-207h-920z" />
<glyph unicode="{" horiz-adv-x="894" d="M106 494v165q39 10 69 23.5t51 33t36 38.5t23.5 47t13 50t5.5 57t1 58.5t-1 63.5t-1 64q0 83 16 146.5t62 109.5q27 26 64 44.5t65 28t78.5 16t70 7.5t74.5 4l27 -182q-121 -14 -160 -47q-24 -21 -38 -46.5t-18.5 -65.5t-5 -68t2 -91t2.5 -96q2 -114 -41 -174.5 t-152 -95.5v-6q108 -35 151.5 -96t41.5 -175q0 -33 -2.5 -97t-2 -93t5 -70t18.5 -67.5t38 -47.5q39 -33 160 -47l-27 -182q-55 3 -74.5 4t-70 7.5t-78.5 16t-65 28t-64 44.5q-46 46 -62 109.5t-16 146.5q0 24 1 64t1 63.5t-1 58.5t-5.5 57t-13 50t-23.5 47t-36 38.5t-51 33 t-69 23.5z" />
<glyph unicode="|" horiz-adv-x="677" d="M240 -262v1851h194v-1851h-194z" />
<glyph unicode="}" horiz-adv-x="894" d="M135 -115q121 14 160 47q24 21 38 47.5t18.5 67.5t5 70t-2 93t-2.5 97q-2 114 41.5 175t151.5 96v6q-109 35 -152 95.5t-41 174.5q0 33 2.5 96t2 91t-5 68t-18.5 65.5t-38 46.5q-39 33 -160 47l27 182q55 -3 74.5 -4t70 -7.5t78.5 -16t65 -28t64 -44.5q46 -46 62 -109.5 t16 -146.5q0 -24 -1 -63.5t-1.5 -63.5t0.5 -58.5t6 -57t13 -50.5t23 -47t36 -38.5t51 -33t69 -23.5v-165q-39 -10 -69 -23.5t-51 -33t-36 -38.5t-23 -47t-13 -50.5t-6 -57t-0.5 -58.5t1.5 -63.5t1 -63.5q0 -83 -16 -146.5t-62 -109.5q-27 -26 -64 -44.5t-65 -28t-78.5 -16 t-70 -7.5t-74.5 -4z" />
<glyph unicode="&#xa1;" horiz-adv-x="618" d="M162 733v291h293v-291h-293zM166 -160l70 772h145q72 -752 72 -772v-231h-287v231z" />
<glyph unicode="&#xa3;" horiz-adv-x="1271" d="M102 0v141q66 12 119 60.5t53 124.5v223h-163v207h163v149q0 221 62 334q54 96 144.5 143.5t232.5 47.5q123 0 207.5 -40t146.5 -118q62 -79 102 -197l-223 -86q-38 118 -84.5 168.5t-138.5 50.5q-62 0 -103 -20.5t-62.5 -61t-29.5 -87.5t-8 -113v-170h543v-207h-543 v-342h633v-207h-1051z" />
<glyph unicode="&#xa8;" horiz-adv-x="757" d="M41 1188v237h256v-237h-256zM461 1188v237h256v-237h-256z" />
<glyph unicode="&#xa9;" horiz-adv-x="1705" d="M123 705q0 148 57.5 283.5t155 233.5t233 156t283.5 58t283.5 -58t233.5 -156t156 -233.5t58 -283.5t-58 -283.5t-156 -233t-233.5 -155.5t-283.5 -58t-283.5 58t-233 155.5t-155 233t-57.5 283.5zM242 705q0 -169 80 -311.5t220 -226t308 -83.5t311 83.5t226 226.5 t83 311q0 127 -49 242.5t-132 199t-198 133t-241 49.5q-168 0 -308 -84t-220 -227t-80 -313zM477 711q0 107 42.5 196.5t130 147t204.5 57.5q113 0 197 -53t127 -141l-140 -60q-54 123 -184 123q-103 0 -162 -80t-59 -190q0 -67 23 -127t76 -102t126 -42q133 0 191 123 l133 -57q-41 -86 -122.5 -141.5t-205.5 -55.5q-166 0 -271.5 115.5t-105.5 286.5z" />
<glyph unicode="&#xab;" horiz-adv-x="1294" d="M123 580v16l346 455l178 -86l-250 -375l250 -377l-178 -90zM627 580v16l344 455l180 -86l-252 -375l252 -377l-180 -90z" />
<glyph unicode="&#xad;" horiz-adv-x="835" d="M115 506v239h592v-239h-592z" />
<glyph unicode="&#xae;" horiz-adv-x="1705" d="M123 705q0 148 57.5 283.5t155 233.5t233 156t283.5 58t283.5 -58t233.5 -156t156 -233.5t58 -283.5t-58 -283.5t-156 -233t-233.5 -155.5t-283.5 -58t-283.5 58t-233 155.5t-155 233t-57.5 283.5zM242 705q0 -169 80 -311.5t220 -226t308 -83.5t311 83.5t226 226.5 t83 311q0 127 -49 242.5t-132 199t-198 133t-241 49.5q-168 0 -308 -84t-220 -227t-80 -313zM567 324v776h326q131 0 211 -64t80 -172q0 -175 -170 -229l203 -311h-173l-178 286h-151v-286h-148zM715 733h170q69 0 112 28.5t43 92.5q0 119 -155 119h-170v-240z" />
<glyph unicode="&#xaf;" horiz-adv-x="757" d="M41 1264v172h676v-172h-676z" />
<glyph unicode="&#xb0;" horiz-adv-x="997" d="M164 1096q0 140 95 237t239 97q145 0 240.5 -97t95.5 -237t-95.5 -236t-240.5 -96t-239.5 96t-94.5 236zM303 1096q0 -87 56 -144t139 -57q84 0 140 57t56 144q0 86 -56 143t-140 57q-82 0 -138.5 -57t-56.5 -143z" />
<glyph unicode="&#xb4;" horiz-adv-x="489" d="M10 1204l156 297l283 -49l-234 -248h-205z" />
<glyph unicode="&#xb8;" horiz-adv-x="425" d="M207 -8h102v-64q129 -18 129 -151q0 -80 -50 -122t-148 -42h-33v100h39q84 0 84 64q0 63 -84 63h-39v152z" />
<glyph unicode="&#xbb;" horiz-adv-x="1294" d="M143 213l252 377l-252 375l181 86l344 -455v-16l-344 -457zM647 213l250 377l-250 375l178 86l346 -455v-16l-346 -457z" />
<glyph unicode="&#xbf;" horiz-adv-x="1107" d="M98 -29q0 64 14.5 116t47 98t69.5 83t97 86q101 82 125 122.5t24 129.5v6h230v-55q0 -50 -10 -90t-24 -69.5t-48.5 -65.5t-63 -60.5t-88.5 -72.5q-64 -52 -92.5 -100.5t-28.5 -116.5q0 -84 57 -135.5t152 -51.5q111 0 178.5 70.5t67.5 206.5v41l233 -45q0 -218 -138 -351 t-345 -133q-190 0 -323.5 109.5t-133.5 277.5zM442 733v291h293v-291h-293z" />
<glyph unicode="&#xc0;" horiz-adv-x="1521" d="M70 0l565 1415h254l565 -1415h-270l-127 332h-594l-127 -332h-266zM455 1812l282 50l156 -297h-205zM547 553h426l-207 575h-4z" />
<glyph unicode="&#xc1;" horiz-adv-x="1521" d="M70 0l565 1415h254l565 -1415h-270l-127 332h-594l-127 -332h-266zM547 553h426l-207 575h-4zM608 1565l156 297l283 -50l-234 -247h-205z" />
<glyph unicode="&#xc2;" horiz-adv-x="1521" d="M70 0l565 1415h254l565 -1415h-270l-127 332h-594l-127 -332h-266zM424 1565l209 278h252l211 -278h-213l-125 129l-123 -129h-211zM547 553h426l-207 575h-4z" />
<glyph unicode="&#xc4;" horiz-adv-x="1521" d="M70 0l565 1415h254l565 -1415h-270l-127 332h-594l-127 -332h-266zM422 1548v238h256v-238h-256zM547 553h426l-207 575h-4zM842 1548v238h256v-238h-256z" />
<glyph unicode="&#xc6;" horiz-adv-x="1847" d="M57 0l566 1415h254l4 -10v10h864v-221h-780l139 -348h549v-223h-461l160 -400h403v-223h-584l-127 332h-593l-127 -332h-267zM535 553h426l-207 575h-4z" />
<glyph unicode="&#xc7;" horiz-adv-x="1480" d="M102 709q0 154 50 288.5t139 233t220.5 155t287.5 56.5q232 0 401.5 -120.5t235.5 -332.5l-265 -80q-27 132 -122 220t-250 88q-100 0 -181.5 -42t-134 -112.5t-80.5 -161.5t-28 -192q0 -100 29 -191.5t81.5 -162t134 -112.5t179.5 -42q163 0 255.5 80t127.5 215l260 -84 q-61 -203 -236 -320t-407 -117q-4 0 -12 1t-11 1v-49q129 -18 129 -151q0 -80 -50 -122t-148 -42h-33v100h39q84 0 84 64q0 63 -84 63h-39v146q-261 41 -416.5 241t-155.5 482z" />
<glyph unicode="&#xc8;" d="M127 0v1415h1053v-221h-787v-348h715v-223h-715v-400h797v-223h-1063zM365 1812l282 50l156 -297h-205z" />
<glyph unicode="&#xc9;" d="M127 0v1415h1053v-221h-787v-348h715v-223h-715v-400h797v-223h-1063zM475 1565l156 297l282 -50l-233 -247h-205z" />
<glyph unicode="&#xca;" d="M127 0v1415h1053v-221h-787v-348h715v-223h-715v-400h797v-223h-1063zM326 1565l209 278h251l211 -278h-213l-125 129l-122 -129h-211z" />
<glyph unicode="&#xcb;" d="M127 0v1415h1053v-221h-787v-348h715v-223h-715v-400h797v-223h-1063zM317 1548v238h256v-238h-256zM737 1548v238h256v-238h-256z" />
<glyph unicode="&#xcc;" horiz-adv-x="536" d="M-55 1812l282 50l156 -297h-205zM133 0v1415h266v-1415h-266z" />
<glyph unicode="&#xce;" horiz-adv-x="536" d="M-68 1565l209 278h252l211 -278h-213l-125 129l-123 -129h-211zM133 0v1415h266v-1415h-266z" />
<glyph unicode="&#xcf;" horiz-adv-x="536" d="M-70 1548v238h256v-238h-256zM133 0v1415h266v-1415h-266zM350 1548v238h256v-238h-256z" />
<glyph unicode="&#xd2;" horiz-adv-x="1613" d="M109 705q0 206 85 373t245.5 265.5t367.5 98.5q204 0 364.5 -97t247 -263t86.5 -369q0 -156 -49.5 -291.5t-139 -234.5t-221.5 -155.5t-290 -56.5q-156 0 -287 56t-220.5 153.5t-139 232t-49.5 288.5zM381 713q0 -99 27 -189t78 -163t134 -116.5t187 -43.5 q103 0 185.5 42t134 113.5t79 160.5t27.5 188t-27.5 189.5t-79 163t-135 116t-186.5 43.5q-101 0 -183.5 -43t-134 -114.5t-79 -160.5t-27.5 -186zM494 1812l282 50l156 -297h-205z" />
<glyph unicode="&#xd3;" horiz-adv-x="1613" d="M109 705q0 206 85 373t245.5 265.5t367.5 98.5q204 0 364.5 -97t247 -263t86.5 -369q0 -156 -49.5 -291.5t-139 -234.5t-221.5 -155.5t-290 -56.5q-156 0 -287 56t-220.5 153.5t-139 232t-49.5 288.5zM381 713q0 -99 27 -189t78 -163t134 -116.5t187 -43.5 q103 0 185.5 42t134 113.5t79 160.5t27.5 188t-27.5 189.5t-79 163t-135 116t-186.5 43.5q-101 0 -183.5 -43t-134 -114.5t-79 -160.5t-27.5 -186zM627 1565l155 297l283 -50l-234 -247h-204z" />
<glyph unicode="&#xd4;" horiz-adv-x="1613" d="M109 705q0 206 85 373t245.5 265.5t367.5 98.5q204 0 364.5 -97t247 -263t86.5 -369q0 -156 -49.5 -291.5t-139 -234.5t-221.5 -155.5t-290 -56.5q-156 0 -287 56t-220.5 153.5t-139 232t-49.5 288.5zM381 713q0 -99 27 -189t78 -163t134 -116.5t187 -43.5 q103 0 185.5 42t134 113.5t79 160.5t27.5 188t-27.5 189.5t-79 163t-135 116t-186.5 43.5q-101 0 -183.5 -43t-134 -114.5t-79 -160.5t-27.5 -186zM471 1565l209 278h252l211 -278h-213l-125 129l-123 -129h-211z" />
<glyph unicode="&#xd6;" horiz-adv-x="1613" d="M109 705q0 206 85 373t245.5 265.5t367.5 98.5q204 0 364.5 -97t247 -263t86.5 -369q0 -156 -49.5 -291.5t-139 -234.5t-221.5 -155.5t-290 -56.5q-156 0 -287 56t-220.5 153.5t-139 232t-49.5 288.5zM381 713q0 -99 27 -189t78 -163t134 -116.5t187 -43.5 q103 0 185.5 42t134 113.5t79 160.5t27.5 188t-27.5 189.5t-79 163t-135 116t-186.5 43.5q-101 0 -183.5 -43t-134 -114.5t-79 -160.5t-27.5 -186zM469 1548v238h256v-238h-256zM889 1548v238h256v-238h-256z" />
<glyph unicode="&#xd7;" horiz-adv-x="1236" d="M123 365l340 337l-340 340l158 158l340 -340l335 336l158 -158l-338 -333l338 -338l-158 -158l-338 338l-337 -340z" />
<glyph unicode="&#xd9;" horiz-adv-x="1437" d="M125 569v846h266v-846q0 -88 14.5 -151t51 -114t104.5 -77t168 -26t168 26t104.5 77t51 114t14.5 151v846h266v-846q0 -275 -155.5 -434.5t-450.5 -159.5q-293 0 -447.5 159.5t-154.5 434.5zM416 1812l282 50l156 -297h-205z" />
<glyph unicode="&#xda;" horiz-adv-x="1437" d="M125 569v846h266v-846q0 -88 14.5 -151t51 -114t104.5 -77t168 -26t168 26t104.5 77t51 114t14.5 151v846h266v-846q0 -275 -155.5 -434.5t-450.5 -159.5q-293 0 -447.5 159.5t-154.5 434.5zM596 1565l156 297l282 -50l-233 -247h-205z" />
<glyph unicode="&#xdb;" horiz-adv-x="1437" d="M125 569v846h266v-846q0 -88 14.5 -151t51 -114t104.5 -77t168 -26t168 26t104.5 77t51 114t14.5 151v846h266v-846q0 -275 -155.5 -434.5t-450.5 -159.5q-293 0 -447.5 159.5t-154.5 434.5zM383 1565l209 278h252l211 -278h-213l-125 129l-123 -129h-211z" />
<glyph unicode="&#xdc;" horiz-adv-x="1437" d="M125 569v846h266v-846q0 -88 14.5 -151t51 -114t104.5 -77t168 -26t168 26t104.5 77t51 114t14.5 151v846h266v-846q0 -275 -155.5 -434.5t-450.5 -159.5q-293 0 -447.5 159.5t-154.5 434.5zM381 1548v238h256v-238h-256zM801 1548v238h256v-238h-256z" />
<glyph unicode="&#xe0;" horiz-adv-x="1267" d="M82 532q0 127 39.5 232.5t106 174t153 106.5t182.5 38q213 0 336 -163h2v135h252v-1055h-254v141h-10q-50 -76 -133 -121t-191 -45q-99 0 -186.5 38t-153.5 108t-104.5 176t-38.5 235zM346 526q0 -158 79 -249t202 -91q118 0 197 93.5t79 248.5q0 157 -78.5 250.5 t-197.5 93.5q-124 0 -202.5 -92.5t-78.5 -253.5zM365 1452l282 49l156 -297h-205z" />
<glyph unicode="&#xe1;" horiz-adv-x="1267" d="M82 532q0 127 39.5 232.5t106 174t153 106.5t182.5 38q213 0 336 -163h2v135h252v-1055h-254v141h-10q-50 -76 -133 -121t-191 -45q-99 0 -186.5 38t-153.5 108t-104.5 176t-38.5 235zM346 526q0 -158 79 -249t202 -91q118 0 197 93.5t79 248.5q0 157 -78.5 250.5 t-197.5 93.5q-124 0 -202.5 -92.5t-78.5 -253.5zM522 1204l156 297l283 -49l-234 -248h-205z" />
<glyph unicode="&#xe2;" horiz-adv-x="1267" d="M82 532q0 127 39.5 232.5t106 174t153 106.5t182.5 38q213 0 336 -163h2v135h252v-1055h-254v141h-10q-50 -76 -133 -121t-191 -45q-99 0 -186.5 38t-153.5 108t-104.5 176t-38.5 235zM303 1204l209 279h252l211 -279h-213l-125 129l-123 -129h-211zM346 526 q0 -158 79 -249t202 -91q118 0 197 93.5t79 248.5q0 157 -78.5 250.5t-197.5 93.5q-124 0 -202.5 -92.5t-78.5 -253.5z" />
<glyph unicode="&#xe4;" horiz-adv-x="1267" d="M82 532q0 127 39.5 232.5t106 174t153 106.5t182.5 38q213 0 336 -163h2v135h252v-1055h-254v141h-10q-50 -76 -133 -121t-191 -45q-99 0 -186.5 38t-153.5 108t-104.5 176t-38.5 235zM301 1188v237h256v-237h-256zM346 526q0 -158 79 -249t202 -91q118 0 197 93.5 t79 248.5q0 157 -78.5 250.5t-197.5 93.5q-124 0 -202.5 -92.5t-78.5 -253.5zM721 1188v237h256v-237h-256z" />
<glyph unicode="&#xe6;" horiz-adv-x="1902" d="M109 293q0 67 24 118.5t60.5 84t97 57.5t114.5 37.5t132 25.5l139 23q108 17 108 115q0 64 -50 98.5t-134 34.5q-95 0 -153.5 -57t-61.5 -162l-252 34q6 97 47 171.5t106.5 119t144 66.5t165.5 22q240 0 358 -129q137 127 342 127q157 0 274.5 -75t176.5 -199.5 t59 -278.5v-55h-766v-57q19 -107 89.5 -171.5t170.5 -64.5q204 0 263 193l233 -58q-58 -159 -183 -250.5t-310 -91.5q-147 0 -263 64v-35h-252v102h-2q-40 -57 -116.5 -94t-180.5 -37t-188.5 35.5t-138 110t-53.5 176.5zM377 289q0 -63 54 -99t130 -36q95 0 159 56t64 136 v131l-221 -45q-97 -20 -141.5 -51t-44.5 -92zM1040 641h514q-9 108 -79.5 176t-178.5 68q-103 0 -172.5 -62.5t-83.5 -160.5v-21z" />
<glyph unicode="&#xe7;" horiz-adv-x="1232" d="M106 526q0 152 65 278t184 200.5t268 74.5q378 0 487 -334l-244 -63q-59 176 -235 176q-115 0 -188.5 -92t-73.5 -240q0 -158 76 -251t190 -93q107 0 164 50t84 143l243 -45q-12 -54 -35 -103t-63.5 -96t-94 -81.5t-130.5 -56t-168 -22.5v-43q129 -18 129 -151 q0 -80 -50.5 -122t-148.5 -42h-33v100h39q84 0 84 64q0 63 -84 63h-39v140q-192 33 -309 185t-117 361z" />
<glyph unicode="&#xe8;" horiz-adv-x="1236" d="M104 528q0 111 34 210.5t97.5 175.5t161 120.5t217.5 44.5q157 0 274.5 -75t176.5 -199.5t59 -278.5v-55h-772q5 -129 78.5 -211t187.5 -82q204 0 263 193l233 -58q-58 -159 -183 -250.5t-310 -91.5q-234 0 -375.5 153t-141.5 404zM289 1452l282 49l156 -297h-205z M356 641h516q-9 108 -79.5 176t-178.5 68t-178.5 -69.5t-79.5 -174.5z" />
<glyph unicode="&#xe9;" horiz-adv-x="1236" d="M104 528q0 111 34 210.5t97.5 175.5t161 120.5t217.5 44.5q157 0 274.5 -75t176.5 -199.5t59 -278.5v-55h-772q5 -129 78.5 -211t187.5 -82q204 0 263 193l233 -58q-58 -159 -183 -250.5t-310 -91.5q-234 0 -375.5 153t-141.5 404zM356 641h516q-9 108 -79.5 176 t-178.5 68t-178.5 -69.5t-79.5 -174.5zM465 1204l156 297l282 -49l-233 -248h-205z" />
<glyph unicode="&#xea;" horiz-adv-x="1236" d="M104 528q0 111 34 210.5t97.5 175.5t161 120.5t217.5 44.5q157 0 274.5 -75t176.5 -199.5t59 -278.5v-55h-772q5 -129 78.5 -211t187.5 -82q204 0 263 193l233 -58q-58 -159 -183 -250.5t-310 -91.5q-234 0 -375.5 153t-141.5 404zM270 1204l209 279h252l211 -279h-213 l-125 129l-123 -129h-211zM356 641h516q-9 108 -79.5 176t-178.5 68t-178.5 -69.5t-79.5 -174.5z" />
<glyph unicode="&#xeb;" horiz-adv-x="1236" d="M104 528q0 111 34 210.5t97.5 175.5t161 120.5t217.5 44.5q157 0 274.5 -75t176.5 -199.5t59 -278.5v-55h-772q5 -129 78.5 -211t187.5 -82q204 0 263 193l233 -58q-58 -159 -183 -250.5t-310 -91.5q-234 0 -375.5 153t-141.5 404zM272 1188v237h256v-237h-256zM356 641 h516q-9 108 -79.5 176t-178.5 68t-178.5 -69.5t-79.5 -174.5zM692 1188v237h256v-237h-256z" />
<glyph unicode="&#xec;" horiz-adv-x="491" d="M-74 1452l283 49l156 -297h-205zM115 0v1055h258v-1055h-258z" />
<glyph unicode="&#xed;" horiz-adv-x="491" d="M115 0v1055h258v-1055h-258zM115 1204l155 297l283 -49l-234 -248h-204z" />
<glyph unicode="&#xee;" horiz-adv-x="491" d="M-90 1204l209 279h252l211 -279h-213l-125 129l-123 -129h-211zM115 0v1055h258v-1055h-258z" />
<glyph unicode="&#xef;" horiz-adv-x="491" d="M-92 1188v237h256v-237h-256zM115 0v1055h258v-1055h-258zM328 1188v237h256v-237h-256z" />
<glyph unicode="&#xf1;" horiz-adv-x="1175" d="M102 0v1055h252v-135h2q49 72 129 117.5t189 45.5q127 0 218.5 -59.5t131.5 -175.5q31 -82 31 -217v-631h-256v592q0 107 -33 166q-54 104 -182 104q-63 0 -113 -30t-78 -82q-35 -59 -35 -164v-586h-256zM172 1249q67 252 252 252q55 0 147 -41t136 -41q39 0 58 22t42 79 l147 -41q-36 -132 -91 -190t-150 -58q-56 0 -143 38t-132 38q-42 0 -68 -22t-46 -75z" />
<glyph unicode="&#xf2;" horiz-adv-x="1234" d="M76 522q0 158 67.5 285t192 200.5t282.5 73.5q235 0 388 -156.5t153 -392.5q0 -244 -150.5 -401.5t-392.5 -157.5q-237 0 -388.5 155t-151.5 394zM322 1452l282 49l156 -297h-205zM336 530q0 -154 70 -249t212 -95q139 0 210 92t71 242q0 153 -71.5 251.5t-211.5 98.5 q-138 0 -209 -95t-71 -245z" />
<glyph unicode="&#xf3;" horiz-adv-x="1234" d="M76 522q0 158 67.5 285t192 200.5t282.5 73.5q235 0 388 -156.5t153 -392.5q0 -244 -150.5 -401.5t-392.5 -157.5q-237 0 -388.5 155t-151.5 394zM336 530q0 -154 70 -249t212 -95q139 0 210 92t71 242q0 153 -71.5 251.5t-211.5 98.5q-138 0 -209 -95t-71 -245z M483 1204l156 297l283 -49l-234 -248h-205z" />
<glyph unicode="&#xf4;" horiz-adv-x="1234" d="M76 522q0 158 67.5 285t192 200.5t282.5 73.5q235 0 388 -156.5t153 -392.5q0 -244 -150.5 -401.5t-392.5 -157.5q-237 0 -388.5 155t-151.5 394zM281 1204l208 279h252l211 -279h-213l-125 129l-122 -129h-211zM336 530q0 -154 70 -249t212 -95q139 0 210 92t71 242 q0 153 -71.5 251.5t-211.5 98.5q-138 0 -209 -95t-71 -245z" />
<glyph unicode="&#xf6;" horiz-adv-x="1234" d="M76 522q0 158 67.5 285t192 200.5t282.5 73.5q235 0 388 -156.5t153 -392.5q0 -244 -150.5 -401.5t-392.5 -157.5q-237 0 -388.5 155t-151.5 394zM279 1188v237h256v-237h-256zM336 530q0 -154 70 -249t212 -95q139 0 210 92t71 242q0 153 -71.5 251.5t-211.5 98.5 q-138 0 -209 -95t-71 -245zM698 1188v237h256v-237h-256z" />
<glyph unicode="&#xf9;" horiz-adv-x="1175" d="M102 424v631h256v-592q0 -107 33 -166q54 -104 182 -104q63 0 113 30t78 82q35 59 35 164v586h256v-1055h-252v135h-2q-113 -164 -318 -164q-127 0 -218 60t-132 176q-31 82 -31 217zM270 1452l283 49l156 -297h-205z" />
<glyph unicode="&#xfa;" horiz-adv-x="1175" d="M102 424v631h256v-592q0 -107 33 -166q54 -104 182 -104q63 0 113 30t78 82q35 59 35 164v586h256v-1055h-252v135h-2q-113 -164 -318 -164q-127 0 -218 60t-132 176q-31 82 -31 217zM434 1204l156 297l282 -49l-233 -248h-205z" />
<glyph unicode="&#xfb;" horiz-adv-x="1175" d="M102 424v631h256v-592q0 -107 33 -166q54 -104 182 -104q63 0 113 30t78 82q35 59 35 164v586h256v-1055h-252v135h-2q-113 -164 -318 -164q-127 0 -218 60t-132 176q-31 82 -31 217zM231 1204l209 279h252l211 -279h-213l-125 129l-123 -129h-211z" />
<glyph unicode="&#xfc;" horiz-adv-x="1269" d="M145 424v631h256v-592q0 -107 33 -166q54 -104 182 -104q63 0 113 30t78 82q35 59 35 164v586h256v-1055h-252v135h-2q-113 -164 -318 -164q-127 0 -218 60t-132 176q-31 82 -31 217zM279 1188v237h256v-237h-256zM698 1188v237h256v-237h-256z" />
<glyph unicode="&#xfd;" horiz-adv-x="1171" d="M63 1055h271l250 -813h2l254 813h264l-397 -1131q-18 -48 -29 -75t-30.5 -66t-36.5 -60.5t-43.5 -47t-55.5 -38t-69.5 -21.5t-88.5 -9q-83 0 -174 14v209q74 -16 150 -16q48 0 80.5 21.5t44.5 62.5l6 20zM461 1204l155 297l283 -49l-233 -248h-205z" />
<glyph unicode="&#x152;" horiz-adv-x="2390" d="M109 705q0 206 85 373t245.5 265.5t367.5 98.5q242 0 428 -142v115h1053v-221h-787v-348h715v-223h-715v-400h797v-223h-1063v113q-180 -138 -430 -138q-156 0 -287 56t-220.5 153.5t-139 232t-49.5 288.5zM381 713q0 -99 27 -189t78 -163t134 -116.5t187 -43.5 q103 0 185.5 42t134 113.5t79 160.5t27.5 188t-27.5 189.5t-79 163t-135 116t-186.5 43.5q-101 0 -183.5 -43t-134 -114.5t-79 -160.5t-27.5 -186z" />
<glyph unicode="&#x153;" horiz-adv-x="2031" d="M90 522q0 240 152 399.5t391 159.5q128 0 234.5 -48.5t179.5 -137.5q140 184 393 184q157 0 274.5 -75t176.5 -199.5t59 -278.5v-55h-772q5 -129 78.5 -211t187.5 -82q203 0 262 193l233 -58q-58 -159 -183 -250.5t-310 -91.5q-127 0 -230.5 48t-171.5 135 q-73 -86 -179 -133.5t-234 -47.5q-237 0 -389 155t-152 394zM350 530q0 -154 70.5 -249t212.5 -95q139 0 209.5 92t70.5 242q0 153 -71 251.5t-211 98.5q-138 0 -209.5 -95t-71.5 -245zM1182 641h516q-9 108 -79.5 176t-178.5 68t-178.5 -69.5t-79.5 -174.5z" />
<glyph unicode="&#x2c6;" horiz-adv-x="753" d="M41 1204l209 279h252l211 -279h-213l-125 129l-123 -129h-211z" />
<glyph unicode="&#x2dc;" horiz-adv-x="937" d="M76 1249q67 252 252 252q55 0 146.5 -41t135.5 -41q39 0 58.5 22t42.5 79l147 -41q-36 -131 -91.5 -189.5t-150.5 -58.5q-56 0 -142.5 38t-131.5 38q-43 0 -69 -22t-46 -75z" />
<glyph unicode="&#x2000;" horiz-adv-x="931" />
<glyph unicode="&#x2001;" horiz-adv-x="1862" />
<glyph unicode="&#x2002;" horiz-adv-x="931" />
<glyph unicode="&#x2003;" horiz-adv-x="1862" />
<glyph unicode="&#x2004;" horiz-adv-x="620" />
<glyph unicode="&#x2005;" horiz-adv-x="465" />
<glyph unicode="&#x2006;" horiz-adv-x="310" />
<glyph unicode="&#x2007;" horiz-adv-x="310" />
<glyph unicode="&#x2008;" horiz-adv-x="232" />
<glyph unicode="&#x2009;" horiz-adv-x="372" />
<glyph unicode="&#x200a;" horiz-adv-x="103" />
<glyph unicode="&#x2010;" horiz-adv-x="835" d="M115 506v239h592v-239h-592z" />
<glyph unicode="&#x2011;" horiz-adv-x="835" d="M115 506v239h592v-239h-592z" />
<glyph unicode="&#x2012;" horiz-adv-x="835" d="M115 506v239h592v-239h-592z" />
<glyph unicode="&#x2013;" horiz-adv-x="1081" d="M115 510v229h831v-229h-831z" />
<glyph unicode="&#x2014;" horiz-adv-x="1839" d="M115 510v229h1571v-229h-1571z" />
<glyph unicode="&#x2018;" horiz-adv-x="550" d="M129 864v234q0 163 76 241.5t231 90.5l27 -105q-185 -30 -170 -184h102v-277h-266z" />
<glyph unicode="&#x2019;" horiz-adv-x="550" d="M94 938l10 2q67 15 108.5 62.5t41.5 107.5v20h-125v285h287v-254q0 -58 -17 -121q-24 -91 -101 -149.5t-189 -77.5z" />
<glyph unicode="&#x201a;" horiz-adv-x="550" d="M94 -193l10 3q67 15 108.5 62.5t41.5 107.5v20h-125v285h287v-254q0 -58 -17 -121q-24 -91 -101 -149.5t-189 -77.5z" />
<glyph unicode="&#x201c;" horiz-adv-x="1026" d="M121 854v254q0 62 16 121q24 91 101 149.5t190 77.5l14 -125l-10 -2q-67 -15 -108 -62.5t-41 -107.5v-20h125v-285h-287zM586 854v254q0 62 16 121q24 91 101 149.5t190 77.5l14 -125l-10 -2q-67 -15 -108 -62.5t-41 -107.5v-20h124v-285h-286z" />
<glyph unicode="&#x201d;" horiz-adv-x="1026" d="M102 938l11 2q67 15 108 62.5t41 107.5v20h-125v285h287v-254q0 -62 -16 -121q-24 -91 -101 -149.5t-190 -77.5zM567 938l11 2q67 15 108 62.5t41 107.5v20h-125v285h287v-254q0 -58 -17 -121q-24 -91 -101 -149.5t-189 -77.5z" />
<glyph unicode="&#x201e;" horiz-adv-x="1026" d="M102 -193l11 3q67 15 108 62.5t41 107.5v20h-125v285h287v-254q0 -62 -16 -121q-24 -91 -101 -149.5t-190 -77.5zM567 -193l11 3q67 15 108 62.5t41 107.5v20h-125v285h287v-254q0 -58 -17 -121q-24 -91 -101 -149.5t-189 -77.5z" />
<glyph unicode="&#x2026;" horiz-adv-x="1859" d="M131 0v287h287v-287h-287zM786 0v287h287v-287h-287zM1442 0v287h287v-287h-287z" />
<glyph unicode="&#x202f;" horiz-adv-x="372" />
<glyph unicode="&#x2039;" horiz-adv-x="790" d="M123 580v16l344 455l180 -86l-252 -375l252 -377l-180 -90z" />
<glyph unicode="&#x203a;" horiz-adv-x="790" d="M143 213l252 377l-252 375l181 86l344 -455v-16l-344 -457z" />
<glyph unicode="&#x205f;" horiz-adv-x="465" />
<glyph unicode="&#x20ac;" horiz-adv-x="1380" d="M61 455v174h136q-2 23 -2 69q0 59 2 88h-136v175h164q26 100 71.5 182.5t112 148t160.5 102t207 36.5q183 0 310 -91.5t196 -246.5l-238 -103q-81 219 -268 219q-198 0 -278 -247h395v-175h-428q-4 -33 -4 -92q0 -42 2 -65h430v-174h-399q77 -256 282 -256 q104 0 172 63.5t103 167.5l239 -100q-67 -163 -196 -259t-318 -96q-115 0 -210 37t-162.5 103.5t-113 151.5t-69.5 188h-160z" />
<glyph unicode="&#x25fc;" horiz-adv-x="1054" d="M0 0v1055h1055v-1055h-1055z" />
</font>
</defs>
</svg>
